<svg xmlns="http://www.w3.org/2000/svg" fill="currentColor" viewBox="0 0 135.47 135.47">
  <path d="M16.53 20.26c-1.978 0-3.862.33-5.651.99-3.203 1.13-5.84 3.154-7.912 6.074C.989 30.15 0 33.304 0 36.79v61.88c0 4.52 1.601 8.43 4.804 11.726 3.296 3.202 7.205 4.804 11.726 4.804 4.615 0 8.523-1.602 11.726-4.804 3.296-3.297 4.945-7.205 4.945-11.726V87.417c.035-2.437 2.545-1.798 3.814 0 2.377 4.115 7.414 7.65 13.28 7.63 5.866-.02 10.737-2.92 13.28-7.63.963-1.136 3.678-3.071 3.956 0V98.67c0 4.52 1.601 8.43 4.803 11.726 3.297 3.202 7.206 4.804 11.726 4.804 4.615 0 8.524-1.602 11.726-4.804 3.297-3.297 4.945-7.205 4.945-11.726V36.79c0-3.485-1.035-6.64-3.108-9.466-1.977-2.92-4.568-4.945-7.77-6.075-1.884-.66-3.768-.989-5.651-.989-5.086 0-9.372 1.978-12.856 5.934L54.57 45.826c-.377.283-1.625 2.443-4.276 2.443s-3.758-2.16-4.134-2.443L29.245 26.194c-3.39-3.956-7.63-5.934-12.715-5.934zm104.53 0c-3.956 0-7.346 1.413-10.172 4.238-2.731 2.732-4.097 6.076-4.097 10.031 0 3.956 1.366 7.347 4.097 10.172 2.826 2.732 6.216 4.098 10.172 4.098 3.956 0 7.346-1.366 10.172-4.098 2.826-2.825 4.239-6.216 4.239-10.172 0-3.955-1.413-7.299-4.239-10.03-2.826-2.826-6.216-4.239-10.172-4.239m.141 31.364c-3.956 0-7.346 1.413-10.172 4.238s-4.238 6.217-4.238 10.172v34.896c0 3.956 1.412 7.347 4.238 10.172 2.826 2.732 6.216 4.098 10.172 4.098s7.3-1.366 10.031-4.098c2.826-2.825 4.239-6.216 4.239-10.172V66.035c0-3.955-1.413-7.346-4.239-10.172-2.731-2.825-6.075-4.238-10.03-4.238" fill="#9cd407" />
</svg>
